<?xml version="1.0" encoding="utf-8"?>
<svg width="97" height="97" viewBox="0 0 97 97" fill="none" xmlns="http://www.w3.org/2000/svg">
  <path id="Shape" d="M5.10522 97L5.10522 74.0972C5.10522 74.0972 72.3671 3.23328 72.3671 3.23328C73.3881 2.15552 74.5368 1.34717 75.8131 0.80835C77.0894 0.269409 78.3657 0 79.6421 0C81.0035 0 82.301 0.269409 83.5349 0.80835C84.7686 1.34717 85.8535 2.15552 86.7894 3.23328C86.7894 3.23328 93.9368 10.7778 93.9368 10.7778C94.9579 11.7657 95.7236 12.9109 96.2342 14.2131C96.7447 15.5155 96.9999 16.8851 96.9999 18.3223C96.9999 19.6694 96.7447 21.0167 96.2342 22.3639C95.7236 23.7111 94.9579 24.9236 93.9368 26.0013C93.9368 26.0013 26.8026 97 26.8026 97L5.10522 97L5.10522 97ZM15.3157 86.2222L22.463 86.2222L72.6223 33.4111L69.0486 29.5042L65.3473 25.7319L15.3157 78.6777L15.3157 86.2222L15.3157 86.2222ZM86.7894 18.457L79.5144 10.7778L86.7894 18.457L86.7894 18.457ZM69.0487 29.5042L65.3474 25.7319L72.6224 33.4111L69.0487 29.5042L69.0487 29.5042ZM56.158 97C62.4545 97 68.283 95.3385 73.6436 92.0153C79.004 88.6921 81.6843 84.0667 81.6843 78.1389C81.6843 74.9055 80.876 72.1213 79.2593 69.7861C77.6426 67.4509 75.4729 65.4302 72.7501 63.7236C72.7501 63.7236 65.2198 71.6722 65.2198 71.6722C67.1769 72.5704 68.7084 73.5583 69.8146 74.6361C70.9207 75.7139 71.4738 76.8815 71.4738 78.1389C71.4738 80.2046 69.921 82.0684 66.8152 83.7299C63.7095 85.3915 60.1571 86.2223 56.158 86.2223C54.7115 86.2223 53.499 86.7386 52.5205 87.7716C51.542 88.8044 51.0527 90.0842 51.0527 91.6111C51.0527 93.1379 51.542 94.4178 52.5205 95.4507C53.499 96.4836 54.7115 97 56.158 97C56.158 97 56.158 97 56.158 97ZM8.04077 55.775C8.04077 55.775 15.6987 47.6917 15.6987 47.6917C13.9969 46.9731 12.6568 46.2322 11.6783 45.4688C10.6998 44.7053 10.2105 43.9194 10.2105 43.1111C10.2105 42.0333 10.9763 40.9556 12.5079 39.8778C14.0395 38.8 17.2728 37.1384 22.2079 34.8931C29.6956 31.4801 34.6732 28.3815 37.1408 25.5972C39.6083 22.813 40.8421 19.6694 40.8421 16.1666C40.8421 11.2268 38.9702 7.29749 35.2263 4.37842C31.4825 1.45947 26.5474 0 20.4211 0C16.5921 0 13.1673 0.718506 10.1467 2.15552C7.1261 3.59265 4.80743 5.34399 3.1908 7.40967C2.25482 8.57727 1.87195 9.87964 2.04211 11.3167C2.21228 12.7537 2.85046 13.9213 3.9566 14.8195C5.06274 15.8074 6.29651 16.2115 7.6579 16.032C9.01929 15.8523 10.168 15.2686 11.1039 14.2805C12.2952 13.0232 13.614 12.125 15.0605 11.5861C16.507 11.0472 18.2939 10.7778 20.4211 10.7778C23.9097 10.7778 26.4836 11.3167 28.1428 12.3944C29.802 13.4722 30.6316 14.7296 30.6316 16.1666C30.6316 17.4241 29.8871 18.5692 28.398 19.6021C26.909 20.635 23.4842 22.4537 18.1237 25.0583C11.3167 28.2019 6.5943 31.0535 3.9566 33.6132C1.31885 36.173 0 39.3389 0 43.1111C0 45.9852 0.723267 48.4326 2.16974 50.4535C3.61621 52.4744 5.57324 54.2482 8.04077 55.775C8.04077 55.775 8.04077 55.775 8.04077 55.775Z" fill="#FFFFFF" />
</svg>