<?xml version="1.0" encoding="utf-8"?>
<svg width="36" height="34.373" viewBox="0 0 36 34.373" fill="none" xmlns="http://www.w3.org/2000/svg">
  <g id="Group">
    <path id="Path" d="M7.5 0C7.5 0 28.5 0 28.5 0C32.642 0 36 3.2062 36 7.16095C36 7.16095 36 27.2116 36 27.2116C36 31.1664 32.642 34.3726 28.5 34.3726C28.5 34.3726 7.5 34.3726 7.5 34.3726C3.358 34.3726 0 31.1664 0 27.2116C0 27.2116 0 7.16095 0 7.16095C0 3.2062 3.358 0 7.5 0C7.5 0 7.5 0 7.5 0Z" fill="#FFFFFF" fill-rule="evenodd" />
    <path id="Shape" d="M12.4591 5.38467L9.88607 5.38467C9.88607 5.38467 13.1711 0.553615 13.1711 0.553615C13.2431 0.448012 13.2231 0.292385 13.1271 0.213462C13.0911 0.182338 13.0431 0.164551 12.9961 0.164551C12.9961 0.164551 8.24407 0.164551 8.24407 0.164551C7.82607 0.164551 7.48507 0.54472 7.48507 1.00826C7.48507 1.47181 7.82707 1.85197 8.24407 1.85197C8.24407 1.85197 10.3791 1.85197 10.3791 1.85197C10.3791 1.85197 7.08307 6.68747 7.08307 6.68747C7.00707 6.79307 7.02707 6.94426 7.12307 7.02762C7.16307 7.06319 7.21007 7.08098 7.25807 7.07654C7.25807 7.07654 12.4551 7.07654 12.4551 7.07654C12.8731 7.0543 13.1951 6.65635 13.1751 6.18836C13.1551 5.75483 12.8451 5.41023 12.4551 5.388C12.4551 5.388 12.4551 5.38356 12.4551 5.38356L12.4591 5.38356L12.4591 5.38467ZM29.0639 0.164551C28.6459 0.164551 28.3049 0.544722 28.3049 1.00826C28.3049 1.00826 28.3049 3.84175 28.3049 3.84175C28.3049 3.84175 24.2009 0.221244 24.2009 0.221244C24.1099 0.136761 23.9699 0.150102 23.8949 0.256815C23.8629 0.30128 23.8469 0.353524 23.8469 0.411328C23.8469 0.411328 23.8469 6.23282 23.8469 6.23282C23.8469 6.69747 24.1889 7.07653 24.6059 7.07653C25.0229 7.07653 25.3649 6.70081 25.3649 6.23282C25.3649 6.23282 25.3649 3.39933 25.3649 3.39933C25.3649 3.39933 29.4689 7.02429 29.4689 7.02429C29.5639 7.10877 29.7039 7.09098 29.7789 6.98427C29.8109 6.9398 29.8269 6.88756 29.8269 6.8342C29.8269 6.8342 29.8269 1.00826 29.8269 1.00826C29.8239 0.540274 29.4859 0.164551 29.0639 0.164551C29.0639 0.164551 29.0639 0.164551 29.0639 0.164551ZM18.2049 5.54378C16.4669 5.54378 15.1709 4.52666 15.1709 3.61625C15.1709 2.70584 16.4709 1.68872 18.2049 1.68872C19.9429 1.68872 21.2389 2.70584 21.2389 3.61625C21.2389 4.52666 19.9459 5.54378 18.2049 5.54378C18.2049 5.54378 18.2049 5.54378 18.2049 5.54378ZM18.2051 0C15.6921 0 13.6521 1.61739 13.6521 3.61606C13.6521 5.61473 15.6921 7.23212 18.2051 7.23212C20.7181 7.23212 22.7581 5.61473 22.7581 3.61606C22.7581 1.61739 20.7181 0 18.2051 0C18.2051 0 18.2051 0 18.2051 0ZM3.25704 5.54823C2.29904 5.54823 1.51904 4.68673 1.51904 3.6207C1.51904 2.55466 2.29404 1.68872 3.25305 1.68872C4.21205 1.68872 4.99105 2.55022 4.99105 3.61625C4.99105 3.61625 4.99105 3.6207 4.99105 3.6207C4.99105 4.68229 4.21605 5.54378 3.25704 5.54823C3.25704 5.54823 3.25704 5.54823 3.25704 5.54823ZM3.257 0C1.46 0 0.00399971 1.61739 0 3.61606C0 5.61362 1.455 7.23213 3.253 7.23657C5.05 7.23657 6.50601 5.61918 6.51001 3.62051C6.51001 3.62051 6.51001 3.61606 6.51001 3.61606C6.50601 1.6185 5.051 0 3.257 0C3.257 0 3.257 0 3.257 0Z" fill="#474747" transform="translate(3 14)" />
  </g>
</svg>